<?xml version="1.0" encoding="utf-8"?>
<!-- Generator: Adobe Illustrator 17.1.0, SVG Export Plug-In . SVG Version: 6.00 Build 0)  -->
<!DOCTYPE svg PUBLIC "-//W3C//DTD SVG 1.1//EN" "http://www.w3.org/Graphics/SVG/1.1/DTD/svg11.dtd">
<svg version="1.1" id="Layer_1" xmlns="http://www.w3.org/2000/svg" xmlns:xlink="http://www.w3.org/1999/xlink" x="0px" y="0px"
	 viewBox="0 0 568 265" enable-background="new 0 0 568 265" xml:space="preserve">
<g>
	<g>
		<path d="M1741.7,35.1c0,2.3-1.8,5.3-7.3,5.3c-1.7,0-3.3-0.2-4.8-0.6c-1.1,1.8-3.3,3.1-6.5,3.1c-1.5,0-3.6-0.3-6.5-1.2l0-0.2
			c2.9,0.8,4.9,1.2,6.4,1.2c3.1,0,5.3-1.3,6.3-3c-7.2-1.8-13.7-6.5-22.3-6.5c-2.7,0-5.6,0.3-8.7,1.2c1.7-0.3,4.2-0.7,6.4-0.7
			c4.3,0,5.9,1.4,5.9,2.8c0,1.8-2.4,3.9-5.2,3.9c-1.3,0-2.7-0.4-4-1.5l0.1-0.1c0.9,0.8,2.1,1.1,3.2,1.1c2.8,0,5.5-2,5.5-3.7
			c0-1.2-1.5-2.3-5.5-2.3c-3.5,0-7.9,1-8.2,1.1c-0.3,0.1-0.5,0.2-0.8,0.3l0-0.2c4.1-1.4,7.9-2,11.3-2c8.8,0,15.4,4.5,22.7,6
			c0.2-0.6,0.3-1.1,0.3-1.7c0-3.3-3.6-6.8-11.9-6.8c-12.1,0-23.1,4.3-23.1,4.3l-0.1-0.2c0,0,11.1-4.3,23.2-4.3
			c8.5,0,12.1,3.6,12.1,7c0,0.6-0.1,1.2-0.4,1.8c1.4,0.3,2.8,0.4,4.2,0.4c5.3,0,7.4-2.2,7.4-4.4c0-2.1-1.8-4.1-4.5-4.1
			c-1.7,0-3.2,0.6-3.2,2.5c-0.4,0-0.9-0.3-0.9-0.8c0-1.5,2.1-2,3.5-2C1739.8,30.7,1741.7,33,1741.7,35.1z"/>
	</g>
	<g>
		<path d="M1671.2,26.9c-2-0.2-3.6-1.1-3.6-2.3c0-0.5,0.2-1,0.7-1.5c2.1-2.2,7.4-2,11.1-2.6c0.6-0.3,1.9-1,2.6-1
			c0.2,0,0.3,0,0.3,0.2c0,0.2-1.4,0.6-2.2,0.8c-1.9,1.3-3.7,3.5-5.5,5.9c0.6-0.2,1.2-0.4,1.7-0.8l0,0.3c-0.6,0.4-1.2,0.6-1.9,0.8
			c-4.4,6-9,13.3-15.7,13.3c-3.3,0-4.9-1.7-4.9-3.9c0-1.6,0.5-3.1,1.4-4.4c-0.3-0.5-0.4-1-0.4-1.6c0-2.3,1.9-4.8,4.3-4.8
			c0.5,0,1,0.2,1.1,0.8c-0.2,0-0.5-0.1-0.7-0.1c-2.7,0-4.5,2.4-4.5,4c0,0.5,0.1,0.9,0.3,1.3c2-2.9,5.5-4.8,8.1-4.8
			c2.4,0,3.3,0.9,3.3,2.2c0,0.7-0.3,1.5-0.7,2.3c0.3,0.2,0.4,0.5,0.4,0.7c0,0.8-1.2,1.9-3.1,2.4c-1.8,1.6-3.9,2.8-5.6,2.8
			c-1.2,0-1.7-0.5-1.7-1.3c0-0.6,0.4-1.4,1.1-2.2c-0.8-0.5-1.4-1-1.8-1.7c-0.8,1.2-1.3,2.6-1.3,4.2c0,1.8,1.9,3.2,4.1,3.2
			C1663,39.4,1666,32.7,1671.2,26.9z M1655.4,31.7c0.4,0.7,1,1.3,1.8,1.8c1.4-1.5,3.8-2.8,6.8-2.8c0.8,0,1.4,0.1,1.7,0.3
			c0.4-0.8,0.7-1.5,0.7-2.1c0-1.1-0.9-1.9-3.1-1.9C1660.9,27,1657.4,28.9,1655.4,31.7z M1662.8,34.4c-0.6,0.1-1.3,0.2-2,0.2
			c-1.4,0-2.6-0.3-3.5-0.8c-0.7,0.7-1,1.4-1,2c0,0.6,0.5,1,1.5,1C1659.2,36.9,1661.1,35.8,1662.8,34.4z M1665.6,31.2
			c-0.3-0.2-0.9-0.3-1.6-0.3c-2.9,0-5.3,1.3-6.6,2.7c0.9,0.5,2.1,0.8,3.4,0.8c0.9,0,1.7-0.1,2.4-0.3
			C1664.1,33.2,1665,32.2,1665.6,31.2z M1665.8,31.3c-0.6,0.9-1.3,1.8-2.2,2.6c1.5-0.5,2.5-1.4,2.5-2.1
			C1666.1,31.7,1666,31.5,1665.8,31.3z M1671.4,26.6c2.1-2.2,4.4-4.3,7.4-5.8c-3.5,0.6-8.3,0.5-10.2,2.5c-0.4,0.5-0.6,0.9-0.6,1.3
			C1667.9,25.6,1669.5,26.4,1671.4,26.6z"/>
		<path d="M1680.2,28.8c0.5-0.5,1.1-1,1.6-1.5c0.3-0.3,1.6-1.3,1.8-1.3c0.1,0,0.2,0.2,0.2,0.3c-1.1,1.1-2.5,2.6-3.9,4
			c-1.8,2-2.8,4.4-2.9,6.6c5,0.5,8.8,1.7,9.1,4.1c2.1,1.1,3.3,2.5,3.3,4.3c0,0.6-0.4,1.7-1.8,1.7c-0.4,0-0.9-0.1-1.6-0.3
			c1.9-0.5,2-1.7,2-2.5c0-1.1-0.7-1.9-1.9-2.7c-0.1,1-1.1,1.8-2.9,1.8c-3.7,0-6-1.9-6.8-4.4c-5.3-0.7-11.5-0.9-16.5-0.9
			c-5.4,0-8.7,0.2-9.3,0.4l-0.3-0.3c0-0.3,9.7-1.5,19.1-1.5c2.3,0,4.6,0.1,6.7,0.3v-0.2c0-2.8,1.2-5,3-6.9c-1.9,1.5-3.9,3.5-6.1,5.8
			c-0.1,0.1-0.2,0.2-0.3,0.2c-0.1,0-0.2-0.2-0.2-0.6c0-3.1,2.6-6.2,4.6-7.9c0.3-0.3,1.6-1.3,1.8-1.3c0.1,0,0.2,0.2,0.2,0.3
			c-1.6,1.7-6.4,7.5-6.4,9c0,0.1,0,0.1,0.1,0.1s0.2-0.1,0.4-0.3C1674.3,34,1677.7,30.5,1680.2,28.8z M1652.2,38.1
			c1.8-0.2,5.8-0.4,10.6-0.4c4.3,0,9.3,0.2,13.7,0.8c-0.1-0.4-0.2-0.8-0.2-1.3c-2.2-0.2-4.7-0.3-7.1-0.3
			C1662.2,37,1655.1,37.6,1652.2,38.1z M1677.1,37.3c0,0.4,0,0.9,0.1,1.3c3.3,0.5,6.2,1.2,8.4,2.2
			C1684.9,38.9,1681.5,37.8,1677.1,37.3z M1685.7,41.4c-2-1-5-1.7-8.4-2.2c0.7,2.3,2.6,4,6,4c1.6,0,2.4-0.7,2.4-1.6
			C1685.7,41.5,1685.7,41.4,1685.7,41.4z"/>
		<path d="M1684.1,28.5c0-2,1.6-3.1,2.7-3.1c0.5,0,1,0.3,1,0.9c0.6-0.4,1.3-0.8,1.8-0.9c0,0,0.1,0,0.1,0c0,0,0,0,0,0c0,0,0,0,0,0.1
			c-0.5,0.2-1.3,0.8-1.9,1.2c-0.1,0.7-0.4,1.6-1,1.6c-0.1,0-0.2-0.1-0.2-0.4c0-0.4,0.2-1,0.8-1.4c0.1,0,0.1-0.1,0.2-0.1
			c0-0.5-0.4-0.8-0.9-0.8c-0.9,0-2.1,0.8-2.1,2.2c0,1.2,0.9,2.3,0.9,3.9c0,2.2-1.8,4.1-4,4.1c-1.1,0-2-0.5-2-2
			c0-1.7,1.5-3.5,2.5-3.5c0.1,0,0.1,0,0.2,0C1682.9,29.6,1683.6,29,1684.1,28.5z M1682.1,30.6c-0.1,0-0.2,0-0.2,0
			c-0.8,0-2,1.8-2,3.3c0,1.2,0.7,1.7,1.6,1.7c2,0,2.8-2.1,2.8-4c0-1-0.1-2-0.1-2.9c-0.6,0.5-1.1,1.1-1.7,1.7
			c0.4,0.2,0.7,0.7,0.7,1.2c0,0.6-0.3,1.2-1,1.5c0.2-0.3,0.4-1,0.4-1.5c0-0.4-0.1-0.7-0.3-0.9l-0.4,0.5l-0.1-0.1L1682.1,30.6z"/>
		<path d="M1698.3,23.5c-1.2,0-2.4,0.1-3.6,0.2c-1.6,1.7-3.4,3.5-4.7,5.2c-1.5,1.9-3.3,4.8-3.3,7.2c0,1.1,0.3,2.4,0.8,3.5
			c1.1-0.3,2.2-0.7,3.2-1c0.7-0.3,1.4-0.5,2.1-0.7c0-0.1,0-0.2,0-0.3c0-1.3-1.1-1.9-2.4-1.9v-0.2c1.4,0,2.6,0.6,2.6,2.1
			c0,0.1,0,0.1,0,0.2c0.8-0.2,1.6-0.4,2.3-0.4c1.9,0,2.7,0.9,2.7,2c0,1.6-2.1,3.6-5.4,3.6c-1.8,0-3.2-0.6-4.3-1.6
			c-0.2,0-0.5,0-0.7,0c-1.1,0-2-0.4-2.6-1.2c-2,0.4-4,0.7-6.1,0.7c-2,0-8.3-0.5-8.3-2.8c0-0.5,0.3-1.1,1-1.7v0.1
			c0,3.3,5.2,4.1,8,4.1c1.7,0,3.5-0.2,5.3-0.6c-0.3-0.5-0.5-1.2-0.5-2.1c0-3.1,1.9-6,1.9-6l0.2,0.1c0,0-1.8,2.8-1.8,5.9
			c0,0.9,0.2,1.6,0.5,2.1c0.6-0.1,1.2-0.3,1.7-0.4c-0.7-1.2-1-2.7-1-4c0-3.9,3.3-8.3,6.9-11.8c-3,0.3-6,0.7-7.9,0.7
			c-1.4,0-2.3-0.2-2.3-0.9c0-0.9,1.4-1.8,2.3-1.8c-0.5,0.4-0.7,0.8-0.7,1c0,0.8,1.3,1.1,3.2,1.1c1.6,0,3.7-0.2,5.8-0.4
			c2.5-2.4,5.1-4.4,6.6-5.5c0,0,0.1,0,0.2,0c0.1,0,0.2,0.1,0.2,0.2v0c-1,1.1-3.1,3-5.2,5.1c2.3-0.2,4.5-0.4,6.3-0.4
			c2.2,0,3.8,0.3,3.8,1.3c0,0.3-0.1,0.6-0.4,1.1C1703.6,23.9,1701.2,23.5,1698.3,23.5z M1687.7,41.3c0.2,0,0.3,0,0.5,0
			c-0.4-0.4-0.8-0.9-1.1-1.4c-0.6,0.1-1.2,0.3-1.7,0.4C1685.9,41,1686.8,41.3,1687.7,41.3z M1692.8,38.1c-0.6,0.2-1.3,0.4-2,0.7
			c-1,0.4-2.1,0.7-3.2,1c0.3,0.5,0.7,1,1.2,1.5C1690.6,40.8,1692.4,39.5,1692.8,38.1z M1697.8,39.4c0-1-0.8-1.8-2.5-1.8
			c-0.7,0-1.5,0.2-2.4,0.4c-0.3,1.5-2.2,2.9-4.1,3.4c1,0.8,2.3,1.4,4.1,1.4C1696.1,42.7,1697.8,40.9,1697.8,39.4z"/>
	</g>
	<g>
		<path d="M1659.5,60.6c0-0.3,0-0.6,0.1-0.9c-0.6-0.7-0.9-1.7-0.9-2.8c0-3.2,3.9-7.4,7.4-7.4c0.8,0,1.5,0.3,1.9,0.7
			c0.5-0.2,1-0.2,1.5-0.3c0.8-1.7,3.8-3.7,8.7-3.7c2,0,3.9,0.4,5.1,1.4c1.4-0.6,2.9-1,4.6-1.2l-0.1,0.2c-1.5,0.3-2.8,0.7-4,1.4
			c0.6,0.7,1,1.6,1,2.7c0,2.8-2.7,5.9-6.4,5.9c-0.8,0-1.5-0.2-2-0.7c-3.1,4.4-6.2,8.5-12.9,8.5C1660.6,64.5,1659.5,62.8,1659.5,60.6
			z M1659.6,59.3c0.7-3.5,4-7.7,8.1-9c-0.4-0.3-1-0.5-1.7-0.5c-3.2,0-7.1,4-7.1,7.3C1659,57.9,1659.2,58.7,1659.6,59.3z M1673.1,52
			L1673.1,52c0,3.4-5.4,9.2-10.4,9.2c-1.2,0-2.1-0.4-2.9-1.1c0,0.2,0,0.4,0,0.6c0,2,1,3.5,3.5,3.5c5.9,0,9.4-12.1,19.4-16.4
			c-1.2-0.9-3-1.3-4.8-1.3c-3.8,0-6.3,1.8-7.2,3.3c1.5,0.1,2.3,0.8,2.4,1.8c1.3-0.5,2.6-1.6,2.7-2.7l0.3,0
			C1676,50.2,1674.6,51.4,1673.1,52z M1669.4,50.2c-0.4,0-0.8,0.1-1.2,0.2c0.3,0.3,0.4,0.8,0.4,1.3c0,2.2-2.2,5.2-5,5.2
			c-0.4,0-0.6-0.3-0.6-0.6c0-0.3,0.2-0.7,0.7-0.9c0.1,0.5,0.4,0.7,0.7,0.7c2.4,0,3.9-3.1,3.9-4.3c0-0.5-0.2-0.9-0.4-1.2
			c-4.2,1.3-7.4,5.8-8,9.2c0.6,0.7,1.6,1.1,2.9,1.1c4.5,0,9.7-5.6,9.9-8.7c-0.3,0.1-0.7,0.2-1,0.2c-1.6,0-2.3-0.6-2.3-1.5
			C1669.3,50.6,1669.3,50.4,1669.4,50.2z M1672.7,51.8c-0.1-1-0.7-1.6-2.1-1.7c-0.1,0.3-0.2,0.6-0.2,0.8c0,0.6,0.4,1,1.2,1
			C1672,52,1672.3,52,1672.7,51.8z M1683.4,48.4c-2.9,1.8-4.9,4.6-6.8,7.4c0.5,0.5,1.1,0.7,1.8,0.7c3.5,0,6-2.9,6-5.5
			C1684.4,49.9,1684,49.1,1683.4,48.4z"/>
		<path d="M1687.8,52.6c-5.8,5.3-7.9,9.9-8,13.4c6.1,0.7,10.8,2.2,11.3,5.1c2.6,1.4,4.2,3.1,4.2,5.4c0,0.8-0.5,2.1-2.3,2.1
			c-0.5,0-1.2-0.1-2-0.4c2.4-0.6,2.5-2.1,2.5-3.1c0-1.3-0.9-2.4-2.4-3.3c-0.1,1.3-1.4,2.3-3.6,2.3c-3.8,0-6.9-2.5-8.2-5.5
			c-6.8-0.9-14.7-1.2-21.1-1.2c-6.8,0-10.9,0.2-11.7,0.5l-0.3-0.4c0-0.3,12.2-1.9,24-1.9c3,0,5.9,0.1,8.6,0.3c0-0.2,0-0.3,0-0.4
			c0-5.5,3.9-9.3,6.6-11.6c0.4-0.3,2-1.6,2.2-1.6C1687.7,52.3,1687.8,52.5,1687.8,52.6z M1669.6,66c-8.7,0-17.6,0.8-21.3,1.4
			c2.3-0.2,7.3-0.5,13.3-0.5c5.5,0,11.9,0.2,17.5,1c-0.2-0.5-0.3-1.1-0.4-1.6C1675.9,66.1,1672.7,66,1669.6,66z M1690.3,70.8
			c-0.8-2.4-5-3.7-10.5-4.3c0,0.6,0.1,1.1,0.2,1.6C1684,68.7,1687.6,69.6,1690.3,70.8z M1690.5,71.7c0-0.1,0-0.1,0-0.2
			c-2.4-1.2-6-2.1-10.2-2.8c1.1,3.1,4,4.9,7.2,4.9C1689.4,73.7,1690.5,72.8,1690.5,71.7z M1689,51.8c0.6,0,1.1-0.7,1.1-1.1
			c0-0.3-0.2-0.5-0.5-0.5c-0.7,0-1.1,0.6-1.1,1.1C1688.4,51.5,1688.6,51.8,1689,51.8z"/>
		<path d="M1692.1,60c0,0.5-0.4,1.2-1,1.8c0.1,0.4,0.2,0.8,0.2,1.2c0,2-1.2,4.6-3.6,4.6c-1.3,0-2.4-0.8-2.4-2.6c0-0.3,0-0.7,0.1-1.1
			c-0.7-0.6-1-1.7-1-2.6c0-4.9,7.5-9.1,9.9-9.1c0.2,0,1,0,1,0.9c0,1.7-2.5,3.9-3.6,3.9c-0.4,0-0.6-0.3-0.6-0.6
			c0-0.4,0.3-0.9,0.8-1.1c0,0.1,0,0.2,0,0.3c0,0.3,0.2,0.5,0.4,0.5c0.8,0,2.6-1.7,2.6-2.8c0-0.4-0.2-0.7-0.5-0.7
			c-2.1,0-9.3,6.7-9.3,9.8c0,0.4,0.1,0.8,0.3,1c0.7-2.1,2.6-4.4,5.2-4.4C1691.7,59.1,1692.1,59.4,1692.1,60z M1690.6,62.3
			c-1.2,1-2.8,1.9-4.2,1.9h0c-0.3,0-0.5-0.1-0.7-0.2c-0.1,0.3-0.1,0.6-0.1,0.9c0,1.6,1,2.3,2.1,2.3c1.8,0,3.2-1.7,3.2-3.6
			C1690.9,63.3,1690.8,62.8,1690.6,62.3z M1690.9,61.4c0.4-0.5,0.7-1,0.7-1.4c0-0.4-0.3-0.6-0.9-0.6c-2.6,0-4.4,2.2-5,4.3
			c0.2,0.1,0.4,0.2,0.6,0.2c1.4,0,2.9-0.9,4-1.8c-0.2-0.4-0.6-0.8-1-1.1c0.1-0.2,0.2-0.2,0.4-0.2C1690.3,60.7,1690.7,61,1690.9,61.4
			z"/>
		<path d="M1687.2,50c0-2,3.7-2.3,5.2-2.3c3.2,0,5.4,0.4,9.6,0.9c3.1-2.9,6.2-5.4,7.8-6.5c0,0,0.1,0,0.2,0c0.2,0,0.3,0.1,0.3,0.2v0
			c-1.3,1.4-3.8,3.7-6.5,6.4c1.6,0.2,3.2,0.3,4.8,0.3c3.2,0,6-0.5,7.7-2.1c0,0.2,0.1,0.4,0.1,0.6c0,2.1-2.1,2.8-5.1,2.8
			c-2.3,0-5.2-0.4-8.2-0.9c-4.6,4.7-9.5,10.2-9.5,13.5c0,0.3,0.2,0.5,0.4,0.5c0.6,0,2.4-1.8,4-3.5c1.1-1.2,2.1-2.3,2.6-2.8l0.1,0.1
			c0,0-1.8,2.1-2.3,2.7c-0.5,0.6-3.4,4-4.5,4c-0.7,0-0.9-1.5-0.9-2c0-3.8,4.1-8.7,8.3-12.8c-3.9-0.7-6-1.1-8.7-1.1
			c-1.6,0-3.6,0.3-3.6,2.1c0,0.4,0.2,0.8,0.5,1.2C1688,51.5,1687.2,50.8,1687.2,50z"/>
		<path d="M1711.7,52.3c0.2,0,0.3,0.2,0.3,0.4c-1.4,1.7-7.8,7.4-7.8,10.4c0,0.3,0.2,0.5,0.4,0.5c0.6,0,2.4-1.8,4-3.5
			c1.1-1.2,2.1-2.3,2.6-2.8l0.1,0.1c0,0-1.8,2.1-2.3,2.7c-0.5,0.6-3.4,4-4.5,4c-0.7,0-0.9-1.5-0.9-2c0-1.5,0.9-3.2,2.6-5.2
			c-2.5,1.9-5,4.4-7.8,7.4c-0.2,0.2-0.3,0.2-0.4,0.2c-0.2,0-0.3-0.2-0.3-0.7c0-3.9,3.2-7.8,5.8-10c0.4-0.3,2-1.6,2.2-1.6
			c0.2,0,0.3,0.2,0.3,0.4c-2,2.1-8,9.5-8,11.3c0,0.1,0,0.2,0.1,0.2c0.1,0,0.2-0.1,0.5-0.4c1.3-1.4,5.7-5.9,8.8-8
			c0.6-0.6,1.3-1.2,2-1.8C1709.9,53.5,1711.5,52.3,1711.7,52.3z"/>
		<path d="M1720.9,53.1l-0.2,0c-2.6,1.4-8.5,8.1-8.5,10c0,0.3,0.2,0.5,0.4,0.5c0.6,0,2.4-1.8,4-3.5c1.1-1.2,2.1-2.3,2.6-2.8l0.1,0.1
			c0,0-1.8,2.1-2.3,2.7c-0.5,0.6-3.4,4-4.5,4c-0.7,0-1-0.6-1-1.4c0-2.4,2.4-7,7.8-9.2c-1.6,0.4-3,0.8-4,0.8c-0.2,0-0.3,0-0.5,0
			c-1.3,1-2.8,2.4-4.7,4.6c-0.5,0.5-0.9,1.1-1.1,1.3l-0.4,0l1.4-1.5c0.6-0.6,1.1-1.2,1.7-1.8c1-1.1,2-2,2.9-2.7
			c-0.7-0.2-0.8-0.6-0.8-1c0-1.2,1.8-2.3,2.9-2.3c-0.7,0.6-1,1.1-1,1.5c0,0.7,1.1,0.9,2.4,0.9c1,0,2.1-0.1,2.9-0.3V53.1z"/>
		<path d="M1719.5,67.3l0.9-0.4c2-0.9,4-1.6,6.4-1.6c2.3,0,3.4,1.1,3.4,2.5c0,0.3,0,0.6-0.1,0.8c2-0.7,3.3-2,3.3-3.9
			c0-0.1,0-0.2,0-0.3c0.9,0.3,1.2,0.7,1.2,1.2c0,1.1-2,2.6-4.6,3.3c-0.6,1.5-2.5,2.3-4.6,2.3c-2.4,0-5.1-1-6.9-3.2
			c-2.9,1.4-5.5,2.4-9.3,2.4c-3.5,0-4.7-1.1-4.7-2.2c0-1.4,1.9-3,4-3h0.2c-1.3,0.5-1.9,1.3-1.9,2.1c0,1.3,1.5,2.5,4.1,2.5
			c2.5,0,4.9-0.9,7.4-2.1c-1-1.3-1.6-3-1.6-5.1v0c0-4.7,4.3-8.3,8-10c0.5-0.2,0.9-0.4,1.2-0.4c0.2,0,0.4,0.1,0.4,0.3
			c0,1.1-4.2,4.7-6.8,6c-1.1,1.6-1.8,3.4-1.8,5C1717.6,65.1,1718.3,66.3,1719.5,67.3z M1718.7,67.7l0.5-0.2c-0.6-0.5-1.1-1-1.5-1.6
			C1717.9,66.5,1718.3,67.1,1718.7,67.7z M1719.5,67.6l-0.6,0.3c1.7,2.1,4.2,3,6.5,3c1.9,0,3.6-0.7,4.3-1.9c-1,0.2-2.1,0.4-3.1,0.4
			C1723.6,69.5,1721.2,68.8,1719.5,67.6z M1725.7,52.7c-0.1,0-0.2,0-0.2,0c-2,1-4.3,3.1-5.9,5.4c4-2.2,6.2-5,6.2-5.3
			C1725.9,52.8,1725.8,52.7,1725.7,52.7z M1729.7,68.7c0.1-0.3,0.2-0.6,0.2-1c0-1.2-1-2.2-3.1-2.2c-2.3,0-4.2,0.7-6.2,1.6l-0.8,0.3
			c1.7,1.2,4.1,1.7,6.6,1.7C1727.6,69.2,1728.8,69,1729.7,68.7z"/>
		<path d="M1727,55.3c0.1-2.5,2-3.9,3.4-3.9c0.7,0,1.2,0.3,1.3,1.1c0.8-0.5,1.7-1,2.3-1.1c0,0,0.1,0,0.2,0c0,0,0.1,0,0.1,0
			c0,0,0,0.1-0.1,0.1c-0.7,0.2-1.7,1-2.4,1.5c-0.1,0.9-0.5,2-1.2,2c-0.2,0-0.2-0.2-0.2-0.5c0-0.5,0.3-1.2,1-1.7
			c0.1,0,0.2-0.1,0.2-0.2c0-0.7-0.5-1-1.1-1c-1.1,0-2.6,1-2.6,2.7c0,1.6,1.2,2.9,1.2,4.9c0,2.8-2.2,5.2-5.1,5.2
			c-1.4,0-2.6-0.7-2.6-2.6c0-2.2,1.9-4.4,3.1-4.4c0.1,0,0.2,0,0.2,0C1725.5,56.7,1726.3,55.9,1727,55.3z M1724.4,57.9
			c-0.1,0-0.2-0.1-0.3-0.1c-1,0-2.5,2.3-2.5,4.1c0,1.5,0.9,2.2,2,2.2c2.5,0,3.5-2.6,3.5-5c0-1.3-0.1-2.5-0.1-3.6
			c-0.7,0.6-1.4,1.4-2.2,2.2c0.6,0.2,0.9,0.9,0.9,1.5c0,0.7-0.4,1.5-1.3,1.9c0.2-0.4,0.4-1.2,0.4-1.9c0-0.5-0.1-0.9-0.3-1.2
			l-0.5,0.7l-0.2-0.2L1724.4,57.9z"/>
	</g>
	<g>
		<path d="M1624.1,45.6c-0.9-0.7-2.2-0.9-3.7-0.9c-1.4,0-3,0.3-4.5,0.7c0.3,0.5,0.5,1.2,0.5,2c0,3.5-4.2,8.4-8.2,8.4
			c-1.8,0-2.6-1-2.6-2.4c0-1.9,1.2-3.7,3-5.2c-0.3-0.6-0.4-1.2-0.4-1.7c0-1.8,2.1-3,4.1-3c1.2,0,2.4,0.4,3.2,1.2
			c1.6-0.4,3.1-0.7,4.6-0.7c1.9,0,3.5,0.4,4.7,1.3c1.4-0.5,2.9-0.9,4.5-1.1l-0.1,0.2c-1.5,0.2-2.8,0.7-3.9,1.4c0.6,0.7,1,1.6,1,2.7
			c0,2.8-2.7,5.9-6.4,5.9c-0.8,0-1.5-0.2-2-0.7c-3.1,4.4-6.2,8.5-12.9,8.5c-2.9,0-4-1-4-2.3v-0.2c-0.7-0.4-1.2-1-1.2-1.8
			c0-1.2,1.1-1.9,2.3-1.9c0.6,0,1.2,0.2,1.7,0.5c0.7-0.3,1.4-0.5,2.2-0.5c1.8,0,2.5,0.7,2.5,1.4c0,1.2-1.9,2.9-5,2.9
			c-0.9,0-1.7-0.2-2.4-0.5v0.1c0,1.1,1,1.9,3.5,1.9C1610.5,62.1,1614,49.9,1624.1,45.6z M1602,56.4c-1.1,0-2.1,0.6-2.1,1.6
			c0,0.7,0.4,1.2,0.9,1.5c0.2-1.1,1.2-2.2,2.5-2.8C1603,56.6,1602.5,56.4,1602,56.4z M1604.6,57.8c-0.2-0.4-0.5-0.7-0.9-0.9
			c-1.4,0.6-2.4,1.7-2.6,2.8c0.7,0.3,1.5,0.5,2.4,0.5c2.8,0,4.7-1.5,4.7-2.6c0-0.7-0.7-1.2-2.2-1.2c-0.7,0-1.3,0.1-1.9,0.4
			c0.3,0.2,0.6,0.5,0.8,0.8L1604.6,57.8z M1611.6,50.3l-0.2,0.2c-1-0.5-1.7-1-2.2-1.5c-1.6,1.4-2.6,3.1-2.6,4.8c0,1,0.5,1.6,1.4,1.6
			c4,0,8-4.8,8-8.1c0-0.7-0.2-1.4-0.5-1.9c-2.2,0.7-4.5,1.9-6.1,3.3C1609.9,49.3,1610.6,49.8,1611.6,50.3z M1608.4,46.5
			c0,0.4,0.1,0.9,0.3,1.4c1.7-1.3,4-2.4,6.3-3.1c-0.7-0.7-1.8-1-2.8-1C1610.3,43.9,1608.4,44.9,1608.4,46.5z M1625.6,48.7
			c0-1.1-0.3-2-0.9-2.6c-2.9,1.8-4.9,4.6-6.9,7.4c0.5,0.5,1.1,0.7,1.8,0.7C1623.1,54.3,1625.6,51.4,1625.6,48.7z"/>
		<path d="M1626.9,64.7c2-0.9,4-1.6,6.4-1.6c2.3,0,3.4,1.1,3.4,2.5c0,0.3-0.1,0.5-0.1,0.8c1.9-0.7,3.1-2,3.1-3.8c0-0.1,0-0.2,0-0.3
			c0.9,0.3,1.2,0.7,1.2,1.2c0,1.1-1.9,2.5-4.5,3.3c-0.6,1.1-2.1,1.7-3.9,1.7c-2.7,0-5.5-1-7.3-2.6c-3,1.4-5.6,2.5-9.5,2.5
			c-3.5,0-4.7-1.1-4.7-2.2c0-1.4,1.9-3,4-3h0.2c-1.3,0.5-1.9,1.3-1.9,2.1c0,1.3,1.5,2.5,4.1,2.5c2.5,0,5-1,7.6-2.1
			c-1.1-1.1-1.8-2.5-1.8-4.1c0-3.9,3.3-8.3,8.2-10.3c-1.6,0.4-3,0.8-4,0.8c-0.2,0-0.3,0-0.5,0c-1.3,1-2.8,2.4-4.7,4.6
			c-0.5,0.5-0.9,1.1-1.1,1.3l-0.4,0l1.4-1.5c1.7-1.9,3.2-3.4,4.5-4.5c-0.7-0.2-0.8-0.6-0.8-1c0-1.2,1.8-2.3,2.9-2.3
			c-0.7,0.6-1,1.1-1,1.5c0,0.7,1.1,0.9,2.4,0.9c1,0,2.1-0.1,2.9-0.3v0.2l-0.2,0c-1.2,0.6-3,2.4-4.7,4.2c-1.5,1.6-4.3,4.7-4.3,6.9
			c0,1.3,0.7,2.7,1.8,3.3L1626.9,64.7z M1633.3,63.4c-2.3,0-4.2,0.7-6.2,1.6c-0.4,0.2-0.8,0.4-1.2,0.6c1.4,0.7,4.1,1.5,6.9,1.5
			c1.3,0,2.5-0.2,3.5-0.5c0.2-0.3,0.2-0.6,0.2-0.9C1636.5,64.4,1635.5,63.4,1633.3,63.4z M1635.9,66.9c-1,0.3-2.1,0.4-3.2,0.4
			c-2.6,0-5.2-0.7-6.8-1.5c1.8,1.3,4.4,2.1,6.5,2.1C1634,67.9,1635.2,67.6,1635.9,66.9z"/>
		<path d="M1636.7,50.5c0.5-0.2,0.9-0.4,1.2-0.4c0.4,0,0.6,0.3,0.6,0.7c0,1.3-2.1,4.2-7,5.5c-1,1.5-1.7,3-1.7,4.1
			c0,0.4,0.1,0.7,0.2,0.8c0.7-2.1,2.6-4.4,5.2-4.4c1,0,1.4,0.3,1.4,0.9c0,0.5-0.4,1.2-1,1.8c0.1,0.4,0.2,0.8,0.2,1.2
			c0,2-1.2,4.6-3.6,4.6c-1.3,0-2.4-0.8-2.4-2.6c0-0.3,0-0.6,0.1-1c-0.7-0.3-1-1.1-1-1.9C1628.9,56.6,1631.7,52.9,1636.7,50.5z
			 M1630.2,61.9c-0.1,0.3-0.1,0.6-0.1,0.9c0,1.6,1,2.3,2.1,2.3c1.8,0,3.2-1.7,3.2-3.5c0-0.5-0.1-1-0.3-1.4c-1.2,1-2.8,1.9-4.2,1.9
			C1630.7,62,1630.4,62,1630.2,61.9z M1635.5,59.2c0.4-0.5,0.7-1,0.7-1.4c0-0.4-0.3-0.6-0.9-0.6c-2.6,0-4.4,2.2-5,4.3
			c0.2,0.1,0.4,0.1,0.6,0.1c1.4,0,2.9-0.9,4-1.8c-0.2-0.4-0.6-0.8-1-1.1c0.1-0.2,0.2-0.2,0.4-0.2
			C1634.8,58.5,1635.2,58.7,1635.5,59.2z M1638.1,50.9c0-0.2-0.1-0.4-0.2-0.4c-0.7,0-4.4,3-6,5.4C1636.5,54.5,1638.1,52,1638.1,50.9
			z"/>
		<path d="M1643.2,56.9c-0.4,0.4-0.7,0.8-0.9,1c-0.5,0.6-3.4,4-4.5,4c-0.7,0-0.9-1.5-0.9-2c0-3.8,4.1-8.7,8.3-12.8
			c-4.3-0.8-8.3-1.5-10.6-1.5c-0.7,0-1.3,0.1-1.9,0.2c-1.1,0.3-1.8,1.1-1.8,1.9c0,0.4,0.2,0.8,0.5,1.2c-1.5,0-2.3-0.7-2.3-1.5
			c0-2,3.7-2.3,5.2-2.3c2.7,0,6.9,0.7,11.5,1.3c3.1-3,6.3-5.4,7.8-6.5c0,0,0.1,0,0.2,0c0.2,0,0.3,0.1,0.3,0.2v0
			c-1.3,1.4-3.9,3.8-6.6,6.5c1,0.1,2.1,0.3,3.1,0.4c3.4-3.2,6.8-6,8.5-7.2c0,0,0.1,0,0.2,0c0.2,0,0.3,0.1,0.3,0.2v0
			c-1.4,1.5-4.2,4.1-7.2,7.1c1.9,0.2,3.8,0.3,5.5,0.3c3.5,0,6.3-0.5,7.8-1.9c0,0.2,0,0.3,0,0.5c0,2-2.3,2.7-5.7,2.7
			c-2.4,0-5.4-0.3-8.4-0.8c-4.4,4.5-8.7,9.6-8.7,12.7c0,0.3,0.2,0.5,0.4,0.5c0.6,0,2.4-1.8,4-3.5c1.1-1.2,2.1-2.3,2.6-2.8l0.1,0.1
			c0,0-1.8,2.1-2.3,2.7c-0.5,0.6-3.4,4-4.5,4c-0.7,0-0.9-1.5-0.9-2C1642.5,59,1642.8,57.9,1643.2,56.9z M1643.5,56.2
			c1.3-2.7,3.8-5.7,6.5-8.3l-3-0.5c-4.6,4.7-9.5,10.2-9.5,13.5c0,0.3,0.2,0.5,0.4,0.5c0.6,0,2.4-1.8,4-3.5
			C1642.5,57.3,1643.1,56.7,1643.5,56.2z"/>
		<path d="M1643.8,72.8c-1.4,0-2.6-0.6-2.6-1.8c0-0.6,0.3-1.4,1-2.3c2.4-3.1,7.1-6.2,11.7-9c1-2.1,2.1-4.2,3.4-5.9
			c-2.9,2-5.8,4.9-9.1,8.3c-0.2,0.2-0.3,0.2-0.4,0.2c-0.2,0-0.3-0.2-0.3-0.7c0-3.9,3.2-7.8,5.8-10c0.4-0.3,2-1.6,2.2-1.6
			c0.2,0,0.3,0.2,0.3,0.4c-2,2.1-8,9.5-8,11.3c0,0.1,0,0.2,0.1,0.2s0.2-0.1,0.5-0.4c1.4-1.5,6.3-6.5,9.5-8.4
			c1.1-1.3,2.3-2.5,3.7-3.2c0.3-0.1,0.4-0.2,0.5-0.2c0.1,0,0.1,0.1,0.1,0.1l0,0c0,0,0,0,0,0.1c0,0.4-3.2,2.7-3.3,2.9
			c-1.3,1.6-2.2,3.6-3,5.7c3.6-2.1,6.8-4.1,8.4-5.6c1.2-1.1,3.9-3.6,3.9-6.4c0-2.9-1.7-4.1-4-4.1c-2.9,0-6.8,2-9.1,4.7l-0.2-0.2
			c2.6-3,6.5-4.8,9.5-4.8c2.4,0,4.2,1.2,4.2,4c0,2.7-1.8,5-3.9,7c-2,1.8-5.4,3.9-9.1,6.1c-1.4,3.9-2.7,8.1-5.6,10.9
			C1648.5,71.5,1646.1,72.8,1643.8,72.8z M1641.6,70.9c0,1,0.8,1.5,1.9,1.5c2,0,3.8-1.8,5.1-3.4c1.9-2.4,3.4-5.5,4.9-8.7
			c-4.4,2.7-8.8,5.6-11.1,8.6C1641.8,69.7,1641.6,70.4,1641.6,70.9z"/>
	</g>
	<g>
		<path d="M1628.6,36.8c-0.7,0.6-1,0.8-1,0.8c2.3-3.1,7-12.2,11.1-16.9c-4.6,2.7-12,16.8-20.4,16.8c-3.8,0-5.4-1.9-5.4-4.3
			c0-0.4,0-0.7,0.1-1.1c-0.5-0.7-0.7-1.6-0.7-2.6c0-3.1,2.6-6,6.1-7.3c0.1,0,0.1,0.1,0.1,0.1c0,0.1-0.1,0.2-0.1,0.2
			c-2.5,0.9-5.8,3.6-5.8,7.1c0,0.7,0.2,1.4,0.4,2c0.8-3.3,3.9-7,7.7-8.2c0-0.1,0-0.2,0-0.4c0-1.8,2.2-4.1,6.2-4.1
			c3.6,0,7.2,0.8,10.9,0.8c1.2,0,2.3-0.1,3.2-0.4l0.1,0.3c-0.4,0.2-0.9,0.3-1.5,0.3c-1.8,1.9-6.8,10.3-9.3,14.3
			c4.2-3.8,9.5-11.8,16.9-16.1c1.8-1.1,3.8-1.9,5.7-1.9c1,0,1.8,0.4,1.8,1.2c0,0.3-0.1,0.6-0.4,1.1c-0.5-0.8-1.4-1.1-2.3-1.1
			C1644.7,17.6,1632,34,1628.6,36.8z M1627.3,25c0.1,0.2,0.1,0.5,0.1,0.7c0,3.2-5.1,8.2-10.9,8.2c-1.3,0-2.3-0.4-3.1-1.3
			c0,0.3,0,0.5,0,0.7c0,2,1.1,3.6,3.8,3.6c5.9,0,9-10.5,21.9-16.8c-0.4,0-0.8,0-1.2,0c-3.6,0-7.2-0.8-10.9-0.8
			c-3.8,0-5.9,2.1-5.9,3.8c0,0.1,0,0.2,0,0.3c0.8-0.2,1.6-0.4,2.4-0.4c2,0,3.1,0.6,3.6,1.5c1-0.6,1.7-1.5,1.7-3c0-0.3,0-0.5-0.1-0.8
			c0.1,0,0.1,0,0.2,0c0.6,0.1,1.2,0.1,1.2,1C1630.1,23.4,1628.8,24.4,1627.3,25z M1620.9,23.8c-4,1.3-6.9,5.2-7.5,8.4
			c0.6,0.8,1.7,1.3,3.1,1.3c5.4,0,10.5-4.9,10.5-7.9c0-0.2,0-0.4-0.1-0.6c-0.9,0.3-2,0.4-2.8,0.4
			C1622.2,25.5,1621.2,24.8,1620.9,23.8z M1626.8,24.7c-0.4-0.8-1.4-1.3-3.3-1.3c-0.8,0-1.6,0.1-2.4,0.4c0.3,0.9,1.2,1.5,3,1.5
			C1625.1,25.2,1626,25.1,1626.8,24.7z"/>
		<path d="M1636.5,36.7c-0.6,0-0.9-0.5-0.9-1.6c0-3.8,5.1-7.6,7.3-7.6c0.5,0,0.7,0.3,0.7,0.9C1643.7,30.9,1639,36.7,1636.5,36.7z
			 M1638.9,32.7c0-1,1-2.7,2.7-2.9c-0.5,0.6-2,2.5-2,3.2c0,0.1,0.1,0.2,0.2,0.2c1.7,0,3.5-3.7,3.5-4.9c0-0.2-0.1-0.4-0.2-0.4
			c-2.4,0-6.9,6.4-6.9,8.1c0,0.3,0.1,0.4,0.3,0.4c1.5,0,3.1-1.6,4.4-3.4c-0.5,0.3-0.9,0.5-1.4,0.5
			C1639.1,33.4,1638.9,33.1,1638.9,32.7z"/>
		<path d="M1653.8,25.1c-1.1,0-2.3,0.1-3.5,0.2c-1.6,1.6-3.2,3.3-4.6,5c-1.5,1.8-3.2,4.6-3.2,6.9c0,1.1,0.2,2.3,0.8,3.4
			c1.1-0.3,2.1-0.6,3.1-1c0.7-0.2,1.4-0.5,2-0.7c0-0.1,0-0.2,0-0.2c0-1.2-1.1-1.8-2.3-1.8v-0.2c1.4,0,2.5,0.6,2.5,2
			c0,0.1,0,0.1,0,0.2c0.8-0.2,1.5-0.4,2.2-0.4c1.8,0,2.6,0.9,2.6,1.9c0,1.5-2,3.5-5.2,3.5c-1.8,0-3.1-0.6-4.1-1.5
			c-0.2,0-0.5,0-0.7,0c-1,0-1.9-0.4-2.5-1.2c-1.9,0.4-3.9,0.6-5.9,0.6c-1.9,0-8-0.5-8-2.7c0-0.5,0.3-1,1-1.7v0.1c0,3.1,5,4,7.7,4
			c1.7,0,3.4-0.2,5.1-0.6c-0.3-0.5-0.5-1.2-0.5-2c0-3,1.8-5.8,1.8-5.8l0.2,0.1c0,0-1.8,2.7-1.8,5.6c0,0.9,0.2,1.5,0.5,2
			c0.6-0.1,1.1-0.3,1.7-0.4c-0.6-1.2-0.9-2.6-0.9-3.9c0-3.8,3.2-8,6.6-11.4c-2.9,0.3-5.8,0.7-7.6,0.7c-1.4,0-2.3-0.2-2.3-0.9
			c0-0.9,1.4-1.8,2.2-1.8c-0.5,0.4-0.6,0.7-0.6,1c0,0.8,1.2,1,3,1c1.5,0,3.5-0.2,5.6-0.4c2.4-2.3,4.9-4.3,6.3-5.3c0,0,0.1,0,0.1,0
			c0.1,0,0.2,0.1,0.2,0.2v0c-1,1.1-2.9,2.9-5,5c2.2-0.2,4.3-0.4,6-0.4c2.1,0,3.6,0.3,3.6,1.3c0,0.3-0.1,0.6-0.4,1
			C1658.8,25.5,1656.5,25.1,1653.8,25.1z M1643.6,42.2c0.1,0,0.3,0,0.5,0c-0.4-0.4-0.8-0.9-1-1.4c-0.6,0.1-1.1,0.3-1.7,0.4
			C1641.8,41.9,1642.7,42.2,1643.6,42.2z M1648.4,39.1c-0.6,0.2-1.2,0.4-1.9,0.6c-1,0.3-2,0.7-3.1,1c0.3,0.5,0.7,1,1.1,1.4
			C1646.3,41.8,1648.1,40.5,1648.4,39.1z M1653.3,40.4c0-0.9-0.8-1.7-2.4-1.7c-0.7,0-1.5,0.1-2.3,0.4c-0.3,1.5-2.1,2.8-3.9,3.3
			c0.9,0.8,2.2,1.3,3.9,1.3C1651.7,43.6,1653.3,41.8,1653.3,40.4z"/>
	</g>
</g>
<g>
	<g>
		<path fill="#69BD45" d="M554.1,84.6c0,8.6-6.9,20.2-27.6,20.2c-6.3,0-12.4-0.9-18.4-2.3c-4.1,6.7-12.7,11.7-24.6,11.7
			c-5.8,0-13.6-1.2-24.6-4.4l0.2-0.6c11,3.2,18.7,4.4,24.5,4.4c11.7,0,20.1-4.8,24.1-11.3c-27.2-6.7-52.1-24.9-84.8-24.9
			c-10.3,0-21.3,1.3-33.1,4.5c6.4-1.2,16-2.8,24.3-2.8c16.3,0,22.4,5.2,22.4,10.8c0,6.9-9.1,14.7-19.8,14.7c-5,0-10.2-1.7-15.1-5.9
			l0.3-0.5c3.6,2.9,7.8,4.1,12,4.1c10.6,0,21-7.5,21-13.9c0-4.7-5.6-8.8-21-8.8c-13.2,0-30.1,4-31.2,4.2c-1,0.3-2,0.7-3.1,1
			l-0.2-0.6c15.7-5.5,30-7.5,43.2-7.5c33.6,0,58.4,17.2,86.2,22.8c0.9-2.1,1.3-4.3,1.3-6.6c0-12.5-13.5-26-45.3-26
			c-45.9,0-88,16.5-88,16.5l-0.2-0.6c0,0,42.2-16.5,88.3-16.5c32.2,0,45.9,13.8,45.9,26.5c0,2.3-0.5,4.6-1.4,6.7
			c5.2,1,10.5,1.6,16,1.6c20.3,0,28.1-8.5,28.1-16.8c0-7.8-7-15.5-17.1-15.5c-6.3,0-12,2.2-12,9.5c-1.5-0.1-3.3-1.1-3.3-2.9
			c0-5.7,8.1-7.6,13.3-7.6C547.1,68.1,554.1,76.5,554.1,84.6z"/>
	</g>
	<g>
		<path fill="#69BD45" d="M286,53.4c-7.6-0.8-13.7-4-13.7-8.6c0-1.7,0.8-3.7,2.8-5.7c7.8-8.3,28.2-7.7,42.1-10
			c2.3-1.2,7.3-3.7,10-3.7c0.6,0,1.1,0.1,1.1,0.6c0,0.9-5.4,2.3-8.4,3.1c-7.3,5-14.2,13.2-21.1,22.4c2.3-0.6,4.5-1.6,6.4-2.9l0.1,1
			c-2.2,1.4-4.6,2.3-7.2,3c-16.8,22.7-34.1,50.7-59.9,50.7c-12.5,0-18.5-6.6-18.5-14.8c0-6.1,2.1-11.7,5.3-16.7
			c-1-1.9-1.5-3.9-1.5-5.9c0-8.6,7.1-18.1,16.5-18.1c2,0,3.7,0.8,4.1,3c-0.9-0.1-1.8-0.2-2.6-0.2c-10.2,0-17,9.3-17,15.3
			c0,1.7,0.4,3.5,1.2,5.1c7.6-11,21.1-18.2,30.7-18.2c9.1,0,12.6,3.4,12.6,8.2c0,2.6-1.1,5.5-2.8,8.6c1,0.8,1.5,1.7,1.5,2.8
			c0,3.2-4.6,7.2-11.8,9.3c-6.8,6-15,10.6-21.2,10.6c-4.5,0-6.5-2-6.5-4.8c0-2.3,1.5-5.3,4.1-8.2c-3-1.7-5.3-3.9-6.8-6.5
			c-3,4.7-4.8,10.1-4.8,15.8c0,7,7.2,12.3,15.5,12.3C254.8,100.8,266.2,75.6,286,53.4z M226.1,71.9c1.4,2.6,3.7,4.9,6.8,6.7
			c5.3-5.5,14.6-10.7,25.9-10.7c3,0,5.2,0.5,6.6,1.2c1.7-2.9,2.7-5.7,2.7-8.1c0-4.3-3.3-7.3-11.7-7.3
			C246.8,53.7,233.4,60.9,226.1,71.9z M254,82.1c-2.3,0.5-4.9,0.8-7.7,0.8c-5.2,0-9.7-1.2-13.3-3.2c-2.5,2.8-3.9,5.5-3.9,7.7
			c0,2.3,1.7,3.9,5.6,3.9C240.3,91.4,247.7,87.4,254,82.1z M264.9,69.9c-1.3-0.6-3.3-1.1-6.1-1.1c-11,0-20.1,4.9-25.2,10.2
			c3.5,1.9,7.9,3,12.8,3c3.4,0,6.4-0.5,9.2-1.2C259.3,77.5,262.6,73.6,264.9,69.9z M265.7,70.3c-2.1,3.4-5,6.8-8.4,10
			c5.9-2,9.5-5.3,9.5-7.9C266.8,71.6,266.4,70.9,265.7,70.3z M286.9,52.4c7.8-8.5,16.8-16.4,28.1-22.2c-13.2,2.4-31.4,1.9-38.9,9.5
			c-1.7,1.7-2.4,3.4-2.4,4.8C273.7,48.7,279.7,51.7,286.9,52.4z"/>
		<path fill="#69BD45" d="M320.2,60.8c2-1.9,4.1-3.8,6.3-5.6c1.2-1,6.1-4.9,6.8-4.9c0.5,0,0.9,0.7,0.9,1.2
			c-4.1,4.3-9.7,9.9-14.7,15.4c-7,7.7-10.8,16.8-11.1,25.1c18.9,2,33.3,6.6,34.8,15.6c7.8,4.1,12.7,9.5,12.7,16.4
			c0,2.4-1.4,6.4-7,6.4c-1.6,0-3.6-0.3-6-1.2c7.2-1.7,7.6-6.5,7.6-9.4c0-4-2.7-7.3-7.2-10.1c-0.3,3.8-4.4,6.8-11,6.8
			c-14,0-22.6-7.1-25.8-16.9c-20.2-2.7-43.8-3.5-62.8-3.5c-20.5,0-33.1,0.7-35.5,1.5l-1-1.2c0-1,37-5.7,72.5-5.7
			c8.8,0,17.5,0.3,25.5,1V91c0-10.5,4.6-18.9,11.3-26.3c-7.3,5.8-14.7,13.2-23.3,21.9c-0.5,0.5-0.9,0.8-1.3,0.8
			c-0.5,0-0.9-0.6-0.9-2.1c0-11.7,9.8-23.7,17.4-30.2c1.2-1,6.1-4.9,6.8-4.9c0.5,0,0.9,0.7,0.9,1.2c-6.2,6.5-24.2,28.6-24.2,34.2
			c0,0.3,0.1,0.5,0.3,0.5c0.2,0,0.7-0.3,1.5-1.2C297.8,80.6,310.7,67.3,320.2,60.8z M213.7,96.1c7-0.6,22.2-1.4,40.2-1.4
			c16.5,0,35.2,0.7,52.1,2.9c-0.4-1.5-0.6-3.1-0.7-4.8c-8.5-0.8-17.7-1.1-27-1.1C252,91.8,224.9,94.3,213.7,96.1z M308.4,93.2
			c0,1.7,0.2,3.3,0.5,4.9c12.4,1.8,23.7,4.5,32,8.4C338.3,99.1,325.3,95.1,308.4,93.2z M341.3,108.6c-7.4-3.9-18.9-6.6-32-8.5
			c2.5,8.7,9.9,15,22.8,15c5.9,0,9.2-2.7,9.2-6C341.3,108.9,341.3,108.7,341.3,108.6z"/>
		<path fill="#69BD45" d="M335.3,59.4c0.2-7.5,6.1-11.7,10.3-11.7c2.1,0,3.7,1,3.9,3.3c2.3-1.5,5.1-3,6.8-3.4c0,0,0.3-0.1,0.5-0.1
			c0.1,0,0.2,0.1,0.2,0.1c0,0.1-0.1,0.2-0.2,0.3c-2.1,0.7-5.1,2.9-7.3,4.4c-0.2,2.8-1.5,6.2-3.7,6.2c-0.5,0-0.8-0.5-0.8-1.4
			c0-1.5,0.8-3.7,3-5.2c0.2-0.1,0.5-0.3,0.7-0.5c0-2-1.4-2.9-3.2-2.9c-3.3,0-8,3-8,8.3c0,4.7,3.5,8.8,3.5,14.9
			c0,8.5-6.7,15.8-15.4,15.8c-4.1,0-7.7-2-7.7-7.7c0-6.6,5.6-13.3,9.5-13.3c0.2,0,0.5,0,0.7,0.1C330.7,63.8,333.1,61.4,335.3,59.4z
			 M327.4,67.4c-0.3-0.1-0.6-0.2-0.9-0.2c-3,0-7.5,7-7.5,12.5c0,4.6,2.7,6.6,6,6.6c7.6,0,10.7-8,10.7-15.1c0-3.9-0.3-7.5-0.3-11
			c-2.1,1.9-4.4,4.1-6.6,6.6c1.7,0.6,2.7,2.6,2.7,4.6c0,2.3-1.2,4.6-3.8,5.6c0.8-1.3,1.3-3.7,1.3-5.8c0-1.5-0.3-2.8-1-3.5l-1.6,2
			l-0.5-0.5L327.4,67.4z"/>
		<path fill="#69BD45" d="M389.3,40.6c-4.4,0-9.1,0.3-13.9,0.7c-6.3,6.3-12.8,13.2-18,19.8c-5.7,7.3-12.5,18.2-12.5,27.2
			c0,4.3,1,9,3.2,13.2c4.3-1.2,8.5-2.6,12.4-3.9c2.8-1,5.4-1.9,7.8-2.6c0.1-0.3,0.1-0.7,0.1-1c0-4.9-4.2-7.1-9.1-7.1v-0.8
			c5.3,0,9.9,2.4,9.9,7.9c0,0.2-0.1,0.5-0.1,0.8c3-0.9,5.9-1.4,8.8-1.4c7.1,0,10.3,3.4,10.3,7.6c0,6.1-8.1,13.8-20.4,13.8
			c-6.9,0-12.2-2.3-16.2-5.9c-0.9,0.1-1.8,0.2-2.6,0.2c-4,0-7.6-1.4-9.9-4.6c-7.6,1.5-15.4,2.5-23.2,2.5c-7.4,0-31.6-1.9-31.6-10.5
			c0-1.9,1.1-4,3.8-6.6v0.5c0,12.4,19.8,15.7,30.5,15.7c6.6,0,13.5-0.9,20.1-2.3c-1.2-2-1.9-4.6-1.9-8.1c0-11.7,7.1-22.7,7.1-22.7
			l0.7,0.5c0,0-7,10.8-7,22.3c0,3.4,0.8,6,2,7.9c2.2-0.5,4.5-1,6.6-1.6c-2.6-4.7-3.7-10.2-3.7-15.2c0-14.9,12.7-31.5,26.2-44.9
			c-11.5,1.2-22.7,2.8-30.1,2.8c-5.5,0-8.9-0.9-8.9-3.4c0-3.5,5.5-7,8.7-7c-1.8,1.6-2.5,2.9-2.5,3.9c0,3.1,4.8,4.1,12,4.1
			c6.1,0,13.9-0.7,22.1-1.5c9.5-9.2,19.2-16.8,25-20.9c0.2-0.1,0.4-0.2,0.6-0.2c0.5,0,0.9,0.3,0.9,0.8v0.1
			c-3.9,4.2-11.6,11.3-19.8,19.6c8.6-0.9,17.1-1.7,23.8-1.7c8.5,0,14.3,1.2,14.3,5.1c0,1.1-0.5,2.4-1.7,4
			C409.2,42.2,400.1,40.6,389.3,40.6z M349,108.3c0.6,0,1.2-0.1,1.8-0.1c-1.6-1.6-3-3.5-4.1-5.5c-2.2,0.5-4.4,1.1-6.6,1.6
			C342.1,107.1,345.4,108.3,349,108.3z M368.1,96c-2.4,0.7-4.8,1.6-7.4,2.5c-3.9,1.3-8,2.6-12.2,3.8c1.2,2,2.6,3.9,4.4,5.6
			C359.8,106.4,366.7,101.5,368.1,96z M387.4,101c0-3.7-3-6.8-9.5-6.8c-2.8,0-5.8,0.6-8.9,1.5c-1.2,5.9-8.2,11.1-15.4,12.8
			c3.7,3.2,8.8,5.2,15.4,5.2C380.9,113.7,387.4,106.8,387.4,101z"/>
	</g>
	<g>
		<path fill="#69BD45" d="M241.5,181.7c0-1.1,0.1-2.2,0.2-3.4c-2.1-2.7-3.4-6.3-3.4-10.7c0-12.3,14.7-28.2,28.3-28.2
			c3.1,0,5.7,1,7.4,2.7c1.9-0.6,3.8-0.9,5.7-1.1c3.1-6.4,14.6-14,32.9-14c7.5,0,14.7,1.6,19.6,5.3c5.3-2.1,11.1-3.6,17.4-4.4
			l-0.3,0.9c-5.7,1-10.7,2.8-15.1,5.3c2.4,2.6,3.9,6.1,3.9,10.3c0,10.7-10.2,22.5-24.4,22.5c-3.1,0-5.8-0.9-7.7-2.8
			c-11.7,16.6-23.6,32.5-49,32.5C245.8,196.6,241.5,189.8,241.5,181.7z M242,176.8c2.6-13.4,15.3-29.3,30.9-34.3
			c-1.5-1.3-3.7-2-6.3-2c-12.1,0-27,15-27,27.7C239.6,171.4,240.4,174.4,242,176.8z M293.5,148.8v0.3c0,12.6-20.6,34.9-39.6,34.9
			c-4.4,0-8.2-1.5-10.9-4.1c-0.1,0.8-0.1,1.7-0.1,2.4c0,7.5,3.9,13.4,13.4,13.4c22.3,0,35.7-46,73.8-62.4
			c-4.6-3.4-11.4-4.8-18.4-4.8c-14.5,0-24.1,6.8-27.4,12.5c5.8,0.4,8.6,3,9.1,6.9c5.1-2,9.9-6.1,10.3-10.3l1,0.1
			C304.4,142.2,299,146.7,293.5,148.8z M279.3,142.1c-1.5,0.1-3.1,0.4-4.5,0.9c1,1.3,1.6,3,1.6,4.9c0,8.4-8.5,19.7-19,19.7
			c-1.6,0-2.4-1-2.4-2.3c0-1.2,0.9-2.7,2.7-3.6c0.4,1.8,1.5,2.6,2.8,2.6c9.3,0,14.9-11.9,14.9-16.4c0-1.8-0.6-3.4-1.6-4.6
			c-16.1,5-28.3,21.9-30.5,35.1c2.4,2.6,6.1,4.2,10.9,4.2c17.2,0,37-21.5,37.5-33.3c-1.3,0.4-2.6,0.6-3.9,0.6c-6,0-8.8-2.4-8.8-5.7
			C278.9,143.6,279,142.8,279.3,142.1z M291.7,148.3c-0.2-3.6-2.6-6.2-7.9-6.5c-0.5,1.2-0.8,2.3-0.8,3.2c0,2.3,1.5,3.9,4.7,3.9
			C289,148.9,290.3,148.8,291.7,148.3z M332.5,135.3c-11,6.8-18.5,17.5-26,28.2c1.8,1.8,4.2,2.6,6.9,2.6c13.4,0,22.8-10.9,22.8-21
			C336.2,140.9,334.8,137.7,332.5,135.3z"/>
		<path fill="#69BD45" d="M349.1,151.4c-21.9,20-30.1,37.5-30.4,51.1c23.4,2.6,41,8.3,42.8,19.5c9.9,5.2,15.9,11.9,15.9,20.7
			c0,3-1.8,8-8.8,8c-2,0-4.5-0.4-7.5-1.5c9-2.2,9.6-8.2,9.6-11.8c0-5-3.4-9.2-9-12.7c-0.4,4.8-5.5,8.6-13.8,8.6
			c-14.5,0-26.2-9.5-31.1-21c-25.7-3.6-56-4.6-80.3-4.6c-25.8,0-41.6,0.9-44.7,1.8l-1.2-1.5c0-1.3,46.6-7.2,91.1-7.2
			c11.3,0,22.4,0.4,32.6,1.3c0-0.6-0.1-1.2-0.1-1.7c0-20.8,14.8-35.5,25.2-44.3c1.5-1.2,7.7-6.1,8.5-6.1
			C348.7,149.9,349.1,150.8,349.1,151.4z M279.9,202.2c-33,0-67,3.2-81.1,5.5c8.8-0.7,27.9-1.8,50.5-1.8c21,0,45.1,0.9,66.6,3.8
			c-0.7-2-1.1-4-1.4-6.1C303.8,202.6,291.9,202.2,279.9,202.2z M358.7,220.6c-3.1-9.1-19-14.1-40-16.5c0.1,2.2,0.4,4.2,0.8,6.1
			C334.7,212.5,348.4,215.8,358.7,220.6z M359.3,223.9c0-0.2-0.1-0.4-0.1-0.7c-9.1-4.7-23-8.2-39-10.5c4.1,11.8,15.3,18.7,27.4,18.7
			C355.2,231.4,359.3,228.1,359.3,223.9z M353.7,148c2.3,0,4.2-2.5,4.2-4.2c0-1-0.6-1.8-2-1.8c-2.6,0-4.2,2.3-4.2,4
			C351.7,147.1,352.2,148,353.7,148z"/>
		<path fill="#69BD45" d="M365.5,179.2c0,2-1.5,4.5-3.8,6.9c0.5,1.4,0.7,3,0.7,4.7c0,7.6-4.6,17.4-13.7,17.4c-4.8,0-9-3.1-9-9.9
			c0-1.3,0.1-2.6,0.4-4c-2.8-2.1-3.7-6.3-3.7-9.7c0-18.8,28.5-34.7,37.7-34.7c0.7,0,3.9,0.1,3.9,3.5c0,6.6-9.5,15-13.6,15
			c-1.5,0-2.2-1-2.2-2.3c0-1.5,1-3.3,3-4.2c-0.1,0.4-0.1,0.7-0.1,1c0,1.3,0.6,1.8,1.5,1.8c3.1,0,10.1-6.6,10.1-10.5
			c0-1.5-0.7-2.7-2-2.7c-8.1,0-35.4,25.4-35.4,37.3c0,1.7,0.5,2.9,1.3,3.7c2.5-8.1,9.7-16.6,19.8-16.6
			C364,175.9,365.5,177.2,365.5,179.2z M359.8,188.2c-4.4,3.9-10.6,7.3-15.8,7.3h-0.1c-1.1-0.1-2-0.3-2.8-0.7
			c-0.2,1.2-0.4,2.3-0.4,3.4c0,6.1,3.8,8.9,8,8.9c6.9,0,12.2-6.6,12.2-13.5C360.9,191.7,360.6,189.9,359.8,188.2z M361.1,184.7
			c1.7-2,2.8-3.9,2.8-5.3c0-1.5-1-2.4-3.5-2.4c-9.7,0-16.6,8.3-18.9,16.2c0.7,0.4,1.5,0.6,2.4,0.6c5.3,0,11.2-3.3,15.2-6.9
			c-0.9-1.5-2.2-2.9-3.8-4.2c0.4-0.6,0.9-0.7,1.5-0.7C358.7,181.9,360.1,183,361.1,184.7z"/>
		<path fill="#69BD45" d="M346.9,141.5c0-7.4,14.1-8.6,19.6-8.6c12,0,20.6,1.4,36.4,3.4c11.9-11.2,23.7-20.4,29.6-24.6
			c0,0,0.3-0.1,0.7-0.1c0.6,0,1.2,0.4,1.2,0.9v0.1c-4.8,5.2-14.5,14.2-24.8,24.4c6.2,0.7,12.3,1.1,18.1,1.1c12.2,0,22.8-2,29.3-8
			c0.1,0.9,0.2,1.7,0.2,2.4c0,8.1-7.8,10.8-19.3,10.8c-8.8,0-19.8-1.6-31.1-3.5c-17.5,17.7-36,38.7-36,51.4c0,1.2,0.7,2,1.5,2
			c2.3,0,9.3-6.9,15.4-13.4c4.3-4.5,8.2-8.9,9.8-10.6l0.4,0.4c0,0-7,8.1-8.7,10.2c-2,2.4-12.9,15.1-17,15.1c-2.6,0-3.3-5.8-3.3-7.5
			c0-14.4,15.5-33.2,31.6-48.7c-14.8-2.8-22.8-4.3-33-4.3c-6.2,0-13.9,1-13.9,8c0,1.6,0.7,3.2,2,4.7
			C350.1,147,346.9,144.4,346.9,141.5z"/>
		<path fill="#69BD45" d="M440.1,149.9c0.7,0,1.1,0.9,1.1,1.5c-5.3,6.6-29.8,28.2-29.8,39.7c0,1.2,0.7,2,1.5,2
			c2.3,0,9.3-6.9,15.4-13.4c4.3-4.5,8.2-8.9,9.8-10.6l0.4,0.4c0,0-7,8.1-8.7,10.2c-2,2.4-12.9,15.1-17,15.1c-2.6,0-3.3-5.8-3.3-7.5
			c0-5.6,3.6-12.3,10.1-19.7c-9.4,7.4-18.9,16.9-29.8,28c-0.6,0.6-1.2,1-1.6,1c-0.7,0-1.1-0.7-1.1-2.7c0-14.7,12.3-29.8,21.9-38
			c1.5-1.2,7.7-6.1,8.5-6.1c0.7,0,1.1,0.9,1.1,1.5c-7.7,8.2-30.4,36-30.4,43.1c0,0.4,0.1,0.6,0.4,0.6s0.9-0.4,1.9-1.5
			c5.1-5.3,21.6-22.3,33.6-30.4c2.3-2.3,4.9-4.5,7.7-6.9C433.1,154.8,439.2,149.9,440.1,149.9z"/>
		<path fill="#69BD45" d="M475,153.1l-0.9,0.1c-9.9,5.3-32.5,30.6-32.5,37.9c0,1.2,0.7,2,1.5,2c2.3,0,9.3-6.9,15.4-13.4
			c4.3-4.5,8.2-8.9,9.8-10.6l0.4,0.4c0,0-7,8.1-8.7,10.2c-2,2.4-12.9,15.1-17,15.1c-2.5,0-3.7-2.1-3.7-5.4c0-9,9.3-26.7,29.8-35.2
			c-6,1.5-11.4,3.1-15.3,3.1c-0.7,0-1.2,0-1.8-0.1c-5,3.9-10.5,9-17.9,17.4c-1.8,2-3.6,4.2-4.3,5.1l-1.5-0.1l5.2-5.5
			c2.2-2.3,4.2-4.7,6.3-6.8c3.9-4,7.7-7.6,10.9-10.4c-2.6-0.7-3.1-2.4-3.1-3.9c0-4.4,6.9-8.8,10.9-8.8c-2.6,2.4-3.7,4.2-3.7,5.5
			c0,2.6,4.2,3.5,9,3.5c3.8,0,8-0.5,11-1.1V153.1z"/>
		<path fill="#69BD45" d="M469.9,207l3.4-1.5c7.4-3.4,15.2-6.1,24.3-6.1c8.9,0,12.9,4.3,12.9,9.6c0,1.2-0.1,2.2-0.4,3.2
			c7.5-2.6,12.6-7.7,12.6-14.7c0-0.4-0.1-0.8-0.1-1.2c3.3,1,4.7,2.6,4.7,4.5c0,4.2-7.5,9.9-17.7,12.7c-2.4,5.7-9.3,8.7-17.4,8.7
			c-9.1,0-19.6-3.9-26.3-12c-11.2,5.2-21.1,9.3-35.3,9.3c-13.2,0-18-4.1-18-8.5c0-5.5,7.2-11.5,15-11.5h0.9c-5,1.8-7.4,5-7.4,8.1
			c0,4.8,5.6,9.6,15.7,9.6c9.5,0,18.7-3.6,28.2-7.9c-3.8-5-6.2-11.5-6.2-19.6v-0.1c0-17.8,16.5-31.4,30.4-37.9
			c1.9-0.9,3.5-1.4,4.5-1.4c0.7,0,1.5,0.4,1.5,1.1c0,4.1-16.1,18-26,22.7c-4.2,6.3-6.9,12.9-6.9,19
			C462.4,198.8,465.3,203.5,469.9,207z M466.6,208.5l2-0.9c-2.3-1.8-4.2-3.8-5.8-6C463.8,204.2,465.1,206.5,466.6,208.5z
			 M469.7,208.4l-2.4,1.1c6.3,8,16.1,11.5,24.7,11.5c7.2,0,13.6-2.6,16.3-7.1c-3.8,0.9-7.8,1.5-12,1.5
			C485.6,215.4,476.3,212.8,469.7,208.4z M493.5,151.7c-0.2,0-0.6,0.1-0.6,0.1c-7.5,3.9-16.3,11.7-22.5,20.4
			c15-8.3,23.5-19.1,23.5-20.3C494,151.8,493.7,151.7,493.5,151.7z M508.8,212.6c0.5-1.2,0.7-2.3,0.7-3.6c0-4.7-3.7-8.5-11.9-8.5
			c-8.6,0-16.1,2.6-23.6,6l-3,1.3c6.4,4.4,15.7,6.6,25.2,6.6C500.7,214.4,505,213.7,508.8,212.6z"/>
		<path fill="#69BD45" d="M498.4,161.4c0.2-9.4,7.7-14.7,12.9-14.7c2.6,0,4.7,1.3,5,4.2c2.9-1.9,6.4-3.8,8.6-4.2
			c0,0,0.4-0.1,0.6-0.1c0.1,0,0.2,0.1,0.2,0.1c0,0.1-0.1,0.2-0.2,0.4c-2.6,0.9-6.3,3.6-9.2,5.5c-0.3,3.5-1.9,7.7-4.7,7.7
			c-0.6,0-0.9-0.7-0.9-1.8c0-1.8,1-4.6,3.8-6.5c0.3-0.1,0.6-0.4,0.9-0.6c0-2.5-1.8-3.6-4.1-3.6c-4.2,0-10.1,3.8-10.1,10.4
			c0,5.9,4.4,11.1,4.4,18.7c0,10.7-8.5,19.8-19.3,19.8c-5.2,0-9.7-2.6-9.7-9.7c0-8.2,7.1-16.8,12-16.8c0.3,0,0.6,0,0.9,0.1
			C492.6,166.9,495.6,163.9,498.4,161.4z M488.5,171.5c-0.4-0.1-0.7-0.2-1.1-0.2c-3.8,0-9.5,8.8-9.5,15.8c0,5.8,3.4,8.3,7.5,8.3
			c9.6,0,13.4-10.1,13.4-19c0-4.9-0.4-9.5-0.4-13.8c-2.7,2.4-5.5,5.2-8.2,8.2c2.1,0.8,3.4,3.3,3.4,5.8c0,2.8-1.5,5.8-4.8,7.1
			c0.9-1.6,1.7-4.7,1.7-7.3c0-1.8-0.4-3.6-1.3-4.5l-2,2.5l-0.6-0.6L488.5,171.5z"/>
	</g>
	<g>
		<path fill="#69BD45" d="M107,124.7c-3.6-2.5-8.5-3.6-14.1-3.6c-5.4,0-11.4,1-17.3,2.8c1.1,2,1.8,4.5,1.8,7.4
			c0,13.1-16.1,31.8-31.2,31.8c-6.9,0-10.1-3.7-10.1-9c0-7.4,4.6-14.2,11.5-19.8c-1.3-2.3-1.6-4.5-1.6-6.4c0-6.9,7.8-11.2,15.6-11.2
			c4.6,0,9.2,1.5,12.2,4.7c6-1.6,12-2.5,17.5-2.5c7.2,0,13.5,1.5,17.7,4.9c5.3-2,10.9-3.6,17.2-4.3l-0.3,0.9
			c-5.7,0.9-10.6,2.8-15,5.2c2.3,2.6,3.7,6.1,3.7,10.4c0,10.7-10.2,22.5-24.4,22.5c-3.1,0-5.8-0.9-7.7-2.8
			c-11.7,16.6-23.6,32.5-49,32.5c-10.9,0-15.2-3.9-15.2-8.6v-0.8c-2.6-1.5-4.4-3.7-4.4-6.8c0-4.6,4.1-7.2,8.8-7.2
			c2.2,0,4.5,0.6,6.6,1.8c2.5-1.1,5.3-1.8,8.3-1.8c6.7,0,9.6,2.5,9.6,5.5c0,4.7-7.3,10.9-18.9,10.9c-3.4,0-6.6-0.6-9.1-1.8v0.5
			c0,4,3.8,7.4,13.5,7.4C55.2,187.2,68.7,140.9,107,124.7z M22.9,165.8c-4.2,0-7.8,2.2-7.8,6.2c0,2.5,1.4,4.5,3.6,5.8
			c0.9-4,4.5-8.2,9.6-10.8C26.6,166.3,24.7,165.8,22.9,165.8z M32.8,171.1c-0.9-1.4-2-2.5-3.3-3.3c-5.2,2.4-9,6.6-9.9,10.6
			c2.5,1.2,5.7,1.8,9,1.8c10.6,0,17.7-5.6,17.7-9.9c0-2.5-2.6-4.5-8.5-4.5c-2.6,0-5,0.5-7.2,1.5c1.2,0.8,2.2,1.9,3.1,3.2L32.8,171.1
			z M59.3,142.4l-0.6,0.8c-3.9-1.8-6.6-3.7-8.5-5.5c-6,5.4-9.9,11.7-9.9,18.2c0,3.7,1.8,6.2,5.3,6.2c15.3,0,30.5-18.2,30.5-30.7
			c0-2.8-0.7-5.2-1.8-7.1c-8.5,2.8-16.9,7.2-23.2,12.6C53,138.8,55.6,140.6,59.3,142.4z M47.3,128.1c0,1.6,0.3,3.4,1.3,5.4
			c6.6-5,15.1-9.1,23.9-11.7c-2.8-2.6-6.7-3.9-10.7-3.9C54.6,118,47.3,121.9,47.3,128.1z M112.8,136.6c0-4.2-1.3-7.4-3.5-9.9
			c-11.1,6.8-18.7,17.7-26.2,28.3c1.8,1.8,4.2,2.6,6.9,2.6C103.3,157.6,112.8,146.6,112.8,136.6z"/>
		<path fill="#69BD45" d="M117.8,197.2c7.4-3.4,15.2-6.1,24.3-6.1c8.9,0,12.9,4.3,12.9,9.6c0,1-0.2,2-0.5,2.9
			c7.1-2.8,11.7-7.7,11.7-14.4c0-0.4-0.1-0.8-0.1-1.2c3.3,1,4.7,2.6,4.7,4.5c0,4.2-7.2,9.6-16.9,12.6c-2.3,4.2-8.1,6.4-14.9,6.4
			c-10.4,0-20.9-3.6-27.9-10c-11.5,5.3-21.5,9.6-36,9.6c-13.2,0-18-4.1-18-8.5c0-5.5,7.2-11.5,15-11.5h0.9c-5,1.8-7.4,5-7.4,8.1
			c0,4.8,5.6,9.6,15.7,9.6c9.6,0,19-3.7,28.8-8.1c-4.2-4.2-6.7-9.5-6.7-15.5c0-15,12.6-31.5,31.1-39.1c-5.9,1.5-11.4,3.1-15.3,3.1
			c-0.7,0-1.2,0-1.8-0.1c-5,3.9-10.5,9-17.9,17.4c-1.8,2-3.6,4.2-4.3,5.1l-1.5-0.1l5.2-5.5c6.3-7.1,12.3-12.8,17.3-17.1
			c-2.6-0.7-3.1-2.4-3.1-3.9c0-4.4,6.9-8.8,10.9-8.8c-2.6,2.4-3.7,4.2-3.7,5.5c0,2.6,4.2,3.5,9,3.5c3.8,0,8-0.5,11-1.1v0.9l-0.9,0.1
			c-4.5,2.4-11.5,9-18,16.1c-5.6,6.2-16.2,17.8-16.2,26.2c0,4.9,2.8,10.2,6.9,12.4L117.8,197.2z M142.1,192.1
			c-8.6,0-16.1,2.6-23.6,6c-1.7,0.7-3.2,1.4-4.7,2.1c5.4,2.8,15.7,5.8,26.1,5.8c4.8,0,9.3-0.7,13.2-2c0.7-1,0.9-2.2,0.9-3.4
			C154,196,150.3,192.1,142.1,192.1z M151.9,205.5c-3.8,1-8,1.6-12.1,1.6c-9.9,0-19.8-2.8-25.7-5.5c6.9,5,16.6,8,24.7,8
			C144.5,209.5,149.3,208.1,151.9,205.5z"/>
		<path fill="#69BD45" d="M155.1,143.1c1.9-0.9,3.5-1.4,4.5-1.4c1.5,0,2.3,1,2.3,2.6c0,5.1-7.9,16.1-26.7,21
			c-3.9,5.8-6.4,11.5-6.4,15.5c0,1.5,0.3,2.5,0.9,3.2c2.5-8.1,9.7-16.6,19.8-16.6c3.6,0,5.2,1.3,5.2,3.3c0,2-1.5,4.5-3.8,6.9
			c0.5,1.4,0.7,3,0.7,4.7c0,7.6-4.6,17.4-13.7,17.4c-4.8,0-9-3.1-9-9.9c0-1.2,0.1-2.4,0.4-3.6c-2.5-1.3-3.9-4-3.9-7.2
			C125.3,166.3,135.9,152.3,155.1,143.1z M130.1,186.6c-0.2,1.1-0.3,2.3-0.3,3.3c0,6.1,3.8,8.9,8,8.9c6.9,0,12.2-6.6,12.2-13.5
			c0-1.9-0.4-3.7-1.2-5.5c-4.4,3.9-10.6,7.3-15.9,7.3C131.9,187.1,131,186.8,130.1,186.6z M150.2,176.3c1.7-2,2.8-3.9,2.8-5.3
			c0-1.5-1-2.4-3.5-2.4c-9.8,0-16.7,8.4-18.9,16.3c0.7,0.4,1.5,0.5,2.4,0.5c5.3,0,11.2-3.3,15.2-6.9c-0.9-1.5-2.2-2.9-3.8-4.2
			c0.4-0.6,0.9-0.7,1.5-0.7C147.8,173.5,149.2,174.6,150.2,176.3z M160.1,144.8c0-0.9-0.4-1.5-0.9-1.5c-2.7,0-16.8,11.3-22.8,20.4
			C154.3,158.5,160.1,149,160.1,144.8z"/>
		<path fill="#69BD45" d="M179.7,167.4c-1.5,1.7-2.7,3.2-3.3,3.9c-2,2.4-12.9,15.1-17,15.1c-2.6,0-3.3-5.8-3.3-7.5
			c0-14.4,15.5-33.3,31.7-48.8c-16.3-2.9-31.4-5.6-40.4-5.6c-2.8,0-5.1,0.2-7.1,0.7c-4.2,1.1-6.8,4-6.8,7.2c0,1.6,0.7,3.2,2,4.7
			c-5.5,0-8.7-2.6-8.7-5.5c0-7.4,14.1-8.6,19.6-8.6c10.3,0,26.4,2.6,43.6,5c12-11.3,23.9-20.6,29.8-24.8c0,0,0.2-0.1,0.6-0.1
			c0.6,0,1.2,0.4,1.2,0.9v0.1c-4.9,5.3-14.7,14.3-25.2,24.8c3.9,0.5,8,1.1,11.9,1.5c12.8-12.3,26-22.7,32.3-27.2
			c0,0,0.2-0.1,0.6-0.1c0.6,0,1.2,0.4,1.2,0.9v0.1c-5.3,5.6-16.1,15.6-27.4,27c7.2,0.7,14.3,1.2,20.9,1.2c13.1,0,23.9-1.8,29.7-7.2
			c0.1,0.7,0.1,1.3,0.1,1.9c0,7.7-8.8,10.4-21.7,10.4c-9.2,0-20.4-1.3-32.1-3.1c-16.6,17.1-33.2,36.5-33.2,48.5c0,1.2,0.7,2,1.5,2
			c2.3,0,9.3-6.9,15.4-13.4c4.3-4.5,8.2-8.9,9.8-10.6l0.4,0.4c0,0-7,8.1-8.7,10.2c-2,2.4-12.9,15.1-17,15.1c-2.6,0-3.3-5.8-3.3-7.5
			C177,175.4,178,171.4,179.7,167.4z M180.8,165c5.1-10.4,14.6-21.7,24.7-31.7l-11.4-2c-17.6,17.7-36.1,38.7-36.1,51.4
			c0,1.2,0.7,2,1.5,2c2.3,0,9.3-6.9,15.4-13.4C177.1,169,179.2,166.8,180.8,165z"/>
		<path fill="#69BD45" d="M181.9,228.1c-5.4,0-10-2.3-10-7c0-2.3,1.1-5.3,3.9-8.8c9.2-11.8,27.1-23.6,44.4-34.2
			c3.9-8,8-15.8,12.8-22.4c-11,7.7-21.9,18.5-34.7,31.7c-0.6,0.6-1.2,0.9-1.6,0.9c-0.7,0-1.1-0.7-1.1-2.7c0-14.7,12.3-29.8,21.9-38
			c1.5-1.2,7.7-6.1,8.5-6.1c0.7,0,1.1,0.9,1.1,1.5c-7.7,8.2-30.4,36-30.4,43.1c0,0.4,0.1,0.6,0.4,0.6c0.3,0,0.9-0.4,1.9-1.5
			c5.5-5.7,23.9-24.7,36-32c4.1-5.1,8.6-9.3,14-12c1-0.5,1.6-0.7,1.9-0.7c0.3,0,0.4,0.2,0.5,0.4l0.1,0.1c0.1,0.1,0.1,0.1,0.1,0.3
			c0,1.5-12,10.4-12.5,10.9c-4.9,6-8.3,13.6-11.4,21.7c13.6-8.2,25.7-15.5,32-21.5c4.5-4.2,14.8-13.6,14.8-24.3
			c0-11-6.6-15.5-15.2-15.5c-11.2,0-25.8,7.4-34.5,17.9l-0.6-0.7c9.9-11.4,24.7-18.4,36-18.4c9.2,0,16.1,4.6,16.1,15
			c0,10.4-6.9,19-15,26.5c-7.4,6.9-20.6,14.9-34.6,23.4c-5.5,14.7-10.2,30.8-21.2,41.5C199.6,223,190.5,228.1,181.9,228.1z
			 M173.4,220.8c0,3.7,3.1,5.8,7.2,5.8c7.7,0,14.4-6.7,19.6-13.1c7.2-9,13-21.1,18.7-33c-16.9,10.3-33.6,21.4-42.2,32.6
			C174.3,216.2,173.4,218.7,173.4,220.8z"/>
	</g>
	<g>
		<path fill="#69BD45" d="M124.1,91.1c-2.8,2.4-3.7,3.1-3.7,3.1c8.9-11.9,26.7-46.3,42.1-64.4c-17.4,10.2-45.8,64-77.6,64
			c-14.5,0-20.5-7.2-20.5-16.4c0-1.3,0.1-2.7,0.4-4.1c-1.8-2.7-2.7-6-2.7-9.9c0-11.6,9.9-22.7,23.2-27.8c0.3,0,0.4,0.2,0.4,0.4
			c0,0.4-0.2,0.7-0.4,0.8c-9.6,3.4-22,13.8-22,27c0,2.8,0.6,5.5,1.7,7.7c3-12.5,14.7-26.6,29.5-31.2c-0.1-0.4-0.1-0.9-0.1-1.4
			c0-7,8.3-15.5,23.6-15.5c13.7,0,27.3,3.1,41.5,3.1c4.5,0,8.6-0.4,12-1.5l0.3,1c-1.7,0.6-3.6,1-5.6,1.2
			c-6.8,7.1-25.8,39.3-35.3,54.5c16-14.5,36.3-44.7,64.4-61.2c6.8-4,14.5-7.2,21.8-7.2c3.7,0,6.8,1.3,6.8,4.4c0,1.1-0.4,2.4-1.4,4.1
			c-1.8-3.1-5.3-4.1-8.9-4.1C185.4,18,137.1,80.4,124.1,91.1z M119.1,46.1c0.3,0.9,0.4,1.9,0.4,2.8c0,12.2-19.5,31.2-41.6,31.2
			c-4.8,0-8.9-1.7-11.7-4.8C66,76.2,66,77.1,66,78c0,7.8,4.3,13.7,14.5,13.7c22.3,0,34.4-40.1,83.4-64c-1.4,0.1-2.9,0.1-4.4,0.1
			c-13.7,0-27.3-3.1-41.5-3.1c-14.5,0-22.6,7.9-22.6,14.5c0,0.4,0,0.7,0.1,1.1c2.9-0.8,6-1.3,9.1-1.3c7.4,0,11.8,2.2,13.7,5.6
			c3.7-2.2,6.3-5.9,6.3-11.3c0-1-0.1-1.9-0.2-3c0.2,0,0.4,0.1,0.6,0.1c2.2,0.2,4.5,0.5,4.5,3.6C129.6,40.1,124.9,43.9,119.1,46.1z
			 M94.7,41.6c-15.1,4.8-26.1,19.8-28.3,32.1c2.4,3.1,6.3,5,11.6,5c20.4,0,40-18.6,40-30c0-0.7-0.1-1.5-0.3-2.2
			c-3.6,1.1-7.4,1.6-10.7,1.6C99.9,48.2,95.8,45.4,94.7,41.6z M117.2,45.1c-1.6-3.1-5.5-5.1-12.5-5.1c-3.1,0-6.2,0.5-9,1.3
			c1,3.3,4.7,5.9,11.3,5.9C110.6,47.1,114.2,46.5,117.2,45.1z"/>
		<path fill="#69BD45" d="M154.3,90.7c-2.3,0-3.5-1.8-3.5-6.2c0-14.4,19.5-28.8,27.9-28.8c1.9,0,2.7,1.3,2.7,3.2
			C181.4,68.8,163.8,90.7,154.3,90.7z M163.2,75.5c0-3.8,4-10.2,10.3-11.1c-2,2.1-7.6,9.7-7.6,12.1c0,0.5,0.3,0.7,0.7,0.7
			c6.4,0,13.4-14.1,13.4-18.7c0-0.9-0.3-1.5-0.8-1.5c-9.1,0-26.1,24.5-26.1,30.9c0,1,0.4,1.6,1.3,1.6c5.7,0,11.8-6.1,16.6-13.1
			c-1.7,1.2-3.5,1.9-5.3,1.9C164,78.4,163.2,77.2,163.2,75.5z"/>
		<path fill="#69BD45" d="M219.9,46.5c-4.3,0-8.8,0.3-13.4,0.7c-6,6.1-12.3,12.7-17.4,19.1c-5.5,7-12,17.5-12,26.2
			c0,4.1,1,8.7,3.1,12.8c4.1-1.2,8.2-2.5,11.9-3.7c2.7-1,5.2-1.8,7.6-2.5c0.1-0.3,0.1-0.7,0.1-1c0-4.7-4.1-6.8-8.8-6.8v-0.8
			c5.1,0,9.6,2.4,9.6,7.6c0,0.2-0.1,0.4-0.1,0.7c2.9-0.8,5.7-1.3,8.5-1.3c6.8,0,9.9,3.3,9.9,7.3c0,5.9-7.8,13.3-19.7,13.3
			c-6.7,0-11.8-2.2-15.6-5.7c-0.8,0.1-1.7,0.2-2.5,0.2c-3.9,0-7.3-1.3-9.5-4.5c-7.3,1.5-14.8,2.4-22.3,2.4
			c-7.2,0-30.5-1.8-30.5-10.1c0-1.8,1.1-3.9,3.7-6.3v0.5c0,12,19.1,15.2,29.4,15.2c6.4,0,13-0.9,19.4-2.2c-1.2-2-1.8-4.5-1.8-7.8
			c0-11.3,6.8-21.9,6.8-21.9l0.7,0.4c0,0-6.7,10.4-6.7,21.5c0,3.2,0.7,5.8,1.9,7.6c2.1-0.4,4.3-1,6.4-1.6c-2.5-4.5-3.6-9.8-3.6-14.7
			c0-14.3,12.3-30.4,25.3-43.3c-11.1,1.2-21.9,2.7-29,2.7c-5.3,0-8.6-0.8-8.6-3.3c0-3.4,5.3-6.8,8.4-6.8c-1.7,1.6-2.4,2.8-2.4,3.7
			c0,3,4.6,3.9,11.6,3.9c5.9,0,13.4-0.7,21.3-1.5c9.2-8.9,18.5-16.2,24.1-20.2c0.2-0.1,0.4-0.2,0.6-0.2c0.4,0,0.8,0.3,0.8,0.7v0.1
			c-3.7,4-11.2,10.9-19.1,18.9c8.3-0.8,16.4-1.6,23-1.6c8.2,0,13.8,1.2,13.8,4.9c0,1.1-0.5,2.4-1.6,3.9
			C239.1,48.1,230.3,46.5,219.9,46.5z M181.1,111.8c0.6,0,1.2-0.1,1.7-0.1c-1.6-1.6-2.9-3.4-4-5.3c-2.1,0.5-4.3,1.1-6.4,1.5
			C174.5,110.6,177.6,111.8,181.1,111.8z M199.5,99.9c-2.3,0.7-4.6,1.5-7.2,2.4c-3.8,1.3-7.7,2.5-11.8,3.6c1.1,2,2.5,3.8,4.3,5.4
			C191.5,110,198.2,105.2,199.5,99.9z M218.1,104.8c0-3.6-2.9-6.5-9.1-6.5c-2.7,0-5.6,0.6-8.6,1.4c-1.1,5.7-7.9,10.7-14.9,12.4
			c3.6,3.1,8.5,5,14.9,5C211.8,117,218.1,110.3,218.1,104.8z"/>
	</g>
</g>
</svg>
